<svg width="98" height="71" viewBox="0 0 98 71" fill="none" xmlns="http://www.w3.org/2000/svg">
<circle cx="35.5" cy="35.5" r="35.5" fill="#D9D9D9"/>
<circle cx="36" cy="36" r="27.5" stroke="#262B3D"/>
<circle cx="36" cy="36" r="5" fill="#262B3D"/>
<circle cx="85.75" cy="15.5146" r="12.25" fill="#D9D9D9"/>
<circle cx="85.7501" cy="15.5147" r="2.16176" fill="#262B3D"/>
<circle cx="85.7499" cy="15.5147" r="5.98529" stroke="#262B3D"/>
<path d="M79 16V34.1212M79 39V34.1212M92 16V34.1212M92 39V34.1212M92 34.1212H79" stroke="white"/>
<path d="M83.9873 44C83.652 44 83.3965 43.9577 83.2207 43.873C83.0482 43.7884 82.931 43.6501 82.8691 43.458C82.8105 43.266 82.7812 43.0104 82.7812 42.6914V38.3066C82.7812 37.9811 82.8105 37.724 82.8691 37.5352C82.931 37.3431 83.0482 37.2064 83.2207 37.125C83.3965 37.0404 83.652 36.998 83.9873 36.998H85.4863C86.1862 36.998 86.7982 37.1022 87.3223 37.3105C87.8496 37.5189 88.2598 37.8721 88.5527 38.3701C88.8457 38.8649 88.9922 39.5452 88.9922 40.4111C88.9922 41.277 88.8457 41.9736 88.5527 42.501C88.2598 43.0251 87.8496 43.4059 87.3223 43.6436C86.7982 43.8812 86.1862 44 85.4863 44H83.9873ZM84.915 38.2822C84.7002 38.2822 84.5537 38.3278 84.4756 38.4189C84.3975 38.5101 84.3584 38.6663 84.3584 38.8877V42.1104C84.3584 42.3285 84.3975 42.4847 84.4756 42.5791C84.5537 42.6735 84.7002 42.7207 84.915 42.7207H85.1396C85.8363 42.7207 86.375 42.5498 86.7559 42.208C87.14 41.8662 87.332 41.2738 87.332 40.4307C87.332 39.8675 87.2441 39.4313 87.0684 39.1221C86.8958 38.8096 86.6452 38.5915 86.3164 38.4678C85.9876 38.3441 85.5921 38.2822 85.1299 38.2822H84.915Z" fill="white"/>
</svg>
